<?xml version="1.0" encoding="UTF-8"?>
<svg xmlns="http://www.w3.org/2000/svg" xmlns:xlink="http://www.w3.org/1999/xlink" width="59px" height="59px" viewBox="0 0 59 59" version="1.1">
<g id="surface1">
<path style=" stroke:none;fill-rule:evenodd;fill:rgb(0%,0%,0%);fill-opacity:1;" d="M 53.296875 2.933594 C 55.140625 4.746094 56.277344 7.242188 56.277344 10.019531 C 56.277344 12.785156 55.140625 15.289062 53.296875 17.097656 C 51.453125 18.914062 48.910156 20.035156 46.097656 20.035156 C 44.652344 20.035156 43.285156 19.730469 42.039062 19.207031 L 41.097656 20.957031 C 44.253906 23.042969 46.34375 26.582031 46.34375 30.609375 C 46.34375 34 44.863281 37.0625 42.5 39.179688 L 43.464844 40.40625 C 45 39.503906 46.789062 38.980469 48.703125 38.980469 C 51.507812 38.980469 54.0625 40.101562 55.894531 41.917969 C 57.738281 43.726562 58.878906 46.230469 58.878906 48.996094 C 58.878906 51.773438 57.738281 54.269531 55.894531 56.082031 C 54.050781 57.890625 51.507812 59.015625 48.703125 59.015625 C 45.894531 59.015625 43.347656 57.890625 41.503906 56.082031 C 39.660156 54.269531 38.523438 51.773438 38.523438 48.996094 C 38.523438 46.230469 39.660156 43.726562 41.503906 41.917969 C 41.5625 41.863281 41.621094 41.808594 41.679688 41.75 L 40.730469 40.488281 C 38.933594 41.578125 36.816406 42.207031 34.554688 42.207031 C 30.363281 42.207031 26.675781 40.050781 24.597656 36.800781 L 18.917969 39.699219 C 19.902344 41.25 20.476562 43.070312 20.476562 45.03125 C 20.476562 47.796875 19.339844 50.300781 17.496094 52.105469 C 15.652344 53.914062 13.105469 55.039062 10.296875 55.039062 C 7.492188 55.039062 4.9375 53.914062 3.105469 52.105469 C 1.265625 50.285156 0.121094 47.78125 0.121094 45.019531 C 0.121094 42.253906 1.265625 39.75 3.105469 37.933594 C 4.949219 36.121094 7.492188 35 10.296875 35 C 13.105469 35 15.65625 36.121094 17.5 37.933594 L 17.515625 37.953125 L 23.585938 34.851562 C 23.0625 33.53125 22.773438 32.097656 22.773438 30.601562 C 22.773438 28.429688 23.375 26.394531 24.433594 24.660156 L 20.574219 21.707031 C 20.480469 21.804688 20.378906 21.914062 20.28125 22.007812 C 18.4375 23.820312 15.898438 24.949219 13.085938 24.949219 C 10.277344 24.949219 7.726562 23.820312 5.894531 22.007812 C 4.050781 20.203125 2.914062 17.695312 2.914062 14.929688 C 2.914062 12.15625 4.050781 9.660156 5.894531 7.851562 C 7.738281 6.035156 10.277344 4.917969 13.085938 4.917969 C 15.898438 4.917969 18.441406 6.035156 20.28125 7.851562 C 22.125 9.664062 23.261719 12.164062 23.261719 14.929688 C 23.261719 16.761719 22.765625 18.472656 21.894531 19.957031 L 25.75 22.898438 C 27.90625 20.511719 31.054688 19.007812 34.566406 19.007812 C 36.1875 19.007812 37.734375 19.328125 39.144531 19.914062 L 40.117188 18.117188 C 39.683594 17.808594 39.289062 17.464844 38.914062 17.097656 C 37.070312 15.289062 35.933594 12.785156 35.933594 10.019531 C 35.933594 7.242188 37.070312 4.746094 38.914062 2.933594 C 40.742188 1.125 43.292969 0 46.097656 0 C 48.910156 0 51.457031 1.125 53.296875 2.933594 Z M 35.996094 33.453125 C 36.304688 33.765625 36.503906 34.183594 36.503906 34.648438 C 36.503906 35.109375 36.304688 35.535156 35.996094 35.835938 C 35.6875 36.148438 35.261719 36.335938 34.796875 36.335938 C 34.320312 36.335938 33.894531 36.148438 33.585938 35.835938 C 33.265625 35.535156 33.078125 35.109375 33.078125 34.648438 C 33.078125 34.1875 33.265625 33.765625 33.585938 33.453125 C 33.894531 33.152344 34.320312 32.960938 34.796875 32.960938 C 35.257812 32.960938 35.6875 33.152344 35.996094 33.453125 Z M 38.089844 26.125 C 39.136719 26.601562 40.175781 27.304688 41.179688 28.238281 C 41.34375 28.390625 41.425781 28.582031 41.433594 28.789062 C 41.441406 28.988281 41.367188 29.191406 41.21875 29.351562 L 41.195312 29.367188 C 41.050781 29.519531 40.855469 29.59375 40.65625 29.597656 C 40.453125 29.597656 40.25 29.535156 40.085938 29.382812 L 40.074219 29.367188 C 39.214844 28.578125 38.335938 27.980469 37.46875 27.578125 C 36.582031 27.175781 35.695312 26.964844 34.820312 26.949219 C 33.929688 26.933594 33.035156 27.121094 32.148438 27.488281 C 31.261719 27.871094 30.363281 28.441406 29.496094 29.195312 C 29.480469 29.210938 29.464844 29.226562 29.441406 29.234375 C 29.285156 29.363281 29.089844 29.421875 28.902344 29.40625 C 28.699219 29.402344 28.503906 29.3125 28.363281 29.15625 C 28.347656 29.136719 28.332031 29.121094 28.328125 29.113281 C 28.195312 28.949219 28.136719 28.757812 28.152344 28.574219 C 28.167969 28.363281 28.257812 28.175781 28.421875 28.023438 C 29.441406 27.136719 30.496094 26.46875 31.570312 26.023438 C 32.648438 25.578125 33.742188 25.355469 34.851562 25.371094 C 35.933594 25.394531 37.023438 25.640625 38.089844 26.125 Z M 36.792969 29.417969 C 37.429688 29.65625 38.058594 30.019531 38.660156 30.5 L 38.675781 30.515625 C 38.839844 30.652344 38.933594 30.839844 38.953125 31.039062 C 38.96875 31.234375 38.921875 31.4375 38.792969 31.605469 L 38.769531 31.632812 C 38.636719 31.789062 38.4375 31.882812 38.238281 31.902344 C 38.03125 31.925781 37.816406 31.867188 37.644531 31.730469 C 37.179688 31.359375 36.703125 31.078125 36.226562 30.898438 C 35.753906 30.710938 35.261719 30.617188 34.785156 30.625 C 34.3125 30.625 33.820312 30.714844 33.339844 30.910156 C 32.859375 31.097656 32.363281 31.386719 31.898438 31.753906 C 31.726562 31.894531 31.515625 31.953125 31.3125 31.925781 C 31.113281 31.914062 30.910156 31.808594 30.765625 31.648438 C 30.632812 31.476562 30.574219 31.265625 30.59375 31.0625 L 30.59375 31.050781 C 30.617188 30.855469 30.710938 30.667969 30.882812 30.53125 C 31.492188 30.050781 32.125 29.679688 32.769531 29.425781 C 33.421875 29.179688 34.09375 29.042969 34.78125 29.042969 C 35.464844 29.042969 36.132812 29.171875 36.792969 29.417969 Z M 35.996094 35.832031 Z M 9.234375 13.675781 L 9.972656 13.675781 L 9.972656 12.671875 C 9.972656 11.832031 10.320312 11.082031 10.882812 10.539062 C 11.441406 9.988281 12.210938 9.644531 13.054688 9.644531 C 13.902344 9.644531 14.667969 9.984375 15.214844 10.539062 C 15.769531 11.082031 16.128906 11.835938 16.128906 12.671875 L 16.128906 13.675781 L 16.714844 13.675781 C 16.84375 13.675781 16.957031 13.785156 16.957031 13.910156 L 16.957031 18.894531 C 16.957031 19.015625 16.84375 19.125 16.714844 19.125 L 9.222656 19.125 C 9.097656 19.125 8.988281 19.015625 8.988281 18.894531 L 8.988281 13.910156 C 8.988281 13.777344 9.097656 13.675781 9.234375 13.675781 Z M 11.171875 13.675781 L 14.921875 13.675781 L 14.921875 12.644531 C 14.921875 12.140625 14.714844 11.679688 14.371094 11.34375 C 14.039062 11.011719 13.5625 10.800781 13.054688 10.800781 C 12.527344 10.800781 12.0625 11.011719 11.722656 11.34375 C 11.375 11.679688 11.171875 12.140625 11.171875 12.644531 Z M 10.296875 39.855469 L 4.78125 45.175781 L 6.128906 45.878906 L 10.273438 41.605469 L 14.476562 45.878906 L 15.8125 45.175781 Z M 6.421875 46.421875 L 10.3125 42.601562 L 14.179688 46.421875 L 14.179688 50.179688 L 6.421875 50.179688 Z M 9.910156 47.65625 L 9.398438 48.976562 L 11.199219 48.976562 L 10.722656 47.632812 C 11.027344 47.480469 11.230469 47.183594 11.230469 46.816406 C 11.230469 46.308594 10.8125 45.898438 10.296875 45.898438 C 9.777344 45.898438 9.367188 46.308594 9.367188 46.816406 C 9.371094 47.1875 9.601562 47.503906 9.910156 47.65625 Z M 51.875 47.75 C 51.78125 47.796875 51.699219 47.84375 51.605469 47.894531 C 51.332031 48.054688 51.066406 48.246094 50.78125 48.460938 L 50.199219 47.804688 C 50.398438 47.625 50.621094 47.457031 50.855469 47.304688 C 51.042969 47.183594 51.226562 47.074219 51.429688 46.984375 C 51.507812 46.953125 51.589844 46.90625 51.667969 46.878906 C 51.285156 46.203125 50.734375 45.722656 50.101562 45.421875 C 49.472656 45.128906 48.761719 45.015625 48.074219 45.074219 C 47.398438 45.140625 46.734375 45.386719 46.183594 45.804688 C 45.550781 46.289062 45.0625 47.011719 44.878906 47.96875 L 44.820312 48.265625 L 44.523438 48.320312 C 44.21875 48.371094 43.960938 48.441406 43.726562 48.53125 C 43.5 48.613281 43.296875 48.722656 43.128906 48.84375 C 42.984375 48.949219 42.863281 49.0625 42.757812 49.183594 C 42.441406 49.554688 42.289062 50.027344 42.296875 50.503906 C 42.296875 50.992188 42.457031 51.484375 42.75 51.875 C 42.867188 52.027344 43 52.164062 43.140625 52.289062 C 43.285156 52.410156 43.449219 52.503906 43.636719 52.582031 C 43.824219 52.65625 44.023438 52.703125 44.253906 52.742188 L 53.050781 52.742188 C 53.484375 52.640625 53.851562 52.503906 54.175781 52.320312 C 54.488281 52.148438 54.753906 51.933594 54.949219 51.683594 C 55.25 51.285156 55.40625 50.71875 55.40625 50.148438 C 55.421875 49.546875 55.261719 48.9375 54.972656 48.492188 C 54.894531 48.371094 54.792969 48.257812 54.699219 48.148438 C 54.257812 47.6875 53.703125 47.480469 53.128906 47.480469 C 52.71875 47.472656 52.289062 47.570312 51.875 47.75 Z M 42.601562 9.628906 C 42.328125 9.050781 42.175781 8.453125 42.179688 7.839844 C 42.179688 7.222656 42.34375 6.589844 42.695312 5.929688 C 42.695312 5.929688 42.695312 5.917969 42.695312 5.914062 C 43.15625 5.152344 43.789062 4.644531 44.496094 4.363281 C 45.09375 4.128906 45.730469 4.050781 46.367188 4.105469 C 47 4.152344 47.625 4.359375 48.164062 4.667969 C 48.84375 5.070312 49.410156 5.664062 49.71875 6.410156 C 49.890625 6.816406 50.007812 7.265625 50.011719 7.761719 C 50.027344 8.253906 49.949219 8.789062 49.71875 9.351562 L 47.988281 11.984375 L 44.398438 12.496094 C 44.21875 11.980469 43.941406 11.402344 43.574219 10.988281 C 43.1875 10.558594 42.851562 10.160156 42.601562 9.628906 Z M 44.753906 14.691406 C 44.589844 14.238281 44.601562 13.960938 44.460938 13.335938 L 48.230469 12.789062 C 48.089844 13.449219 48.21875 13.792969 48.117188 14.308594 C 47.804688 15.9375 45.328125 16.207031 44.753906 14.691406 Z M 54.757812 43.023438 C 53.210938 41.5 51.070312 40.558594 48.703125 40.558594 C 46.328125 40.558594 44.191406 41.5 42.636719 43.023438 C 41.085938 44.554688 40.128906 46.664062 40.128906 48.992188 C 40.128906 51.316406 41.085938 53.425781 42.636719 54.949219 C 44.191406 56.480469 46.328125 57.417969 48.703125 57.417969 C 51.066406 57.417969 53.210938 56.480469 54.757812 54.949219 C 56.308594 53.425781 57.265625 51.316406 57.265625 48.992188 C 57.265625 46.664062 56.308594 44.554688 54.757812 43.023438 Z M 52.160156 4.050781 C 50.609375 2.519531 48.472656 1.585938 46.097656 1.585938 C 43.738281 1.585938 41.59375 2.519531 40.042969 4.050781 C 38.488281 5.574219 37.53125 7.683594 37.53125 10.007812 C 37.53125 12.347656 38.488281 14.445312 40.042969 15.976562 C 41.59375 17.5 43.730469 18.441406 46.097656 18.441406 C 48.460938 18.441406 50.609375 17.5 52.160156 15.976562 C 53.714844 14.445312 54.664062 12.335938 54.664062 10.007812 C 54.664062 7.683594 53.714844 5.574219 52.160156 4.050781 Z M 19.144531 8.957031 C 17.589844 7.4375 15.445312 6.496094 13.078125 6.496094 C 10.710938 6.496094 8.570312 7.4375 7.023438 8.957031 C 5.472656 10.484375 4.515625 12.597656 4.515625 14.921875 C 4.515625 17.25 5.472656 19.359375 7.023438 20.882812 C 8.570312 22.414062 10.710938 23.355469 13.078125 23.355469 C 15.445312 23.355469 17.589844 22.414062 19.144531 20.882812 C 20.691406 19.359375 21.648438 17.253906 21.648438 14.921875 C 21.660156 12.597656 20.691406 10.484375 19.144531 8.957031 Z M 16.363281 39.058594 C 14.808594 37.53125 12.671875 36.585938 10.296875 36.585938 C 7.933594 36.585938 5.792969 37.53125 4.242188 39.058594 C 2.691406 40.582031 1.734375 42.6875 1.734375 45.019531 C 1.734375 47.34375 2.691406 49.457031 4.242188 50.976562 C 5.792969 52.503906 7.929688 53.449219 10.296875 53.449219 C 12.671875 53.449219 14.808594 52.503906 16.363281 50.976562 C 17.914062 49.457031 18.867188 47.34375 18.867188 45.019531 C 18.867188 42.6875 17.914062 40.582031 16.363281 39.058594 Z M 16.363281 39.058594 "/>
</g>
</svg>
